# xmcd
#
# Track frame offsets:
#	150
#	13789
#	30137
#	42801
#	56681
#	71509
#	86120
#	100548
#	114929
#	127212
#	140038
#	152927
#	166303
#	181128
#	195251
#	209698
#
# Disc length: 3008 seconds
#
# Revision: 0
# Processed by: cddbd v1.5.2PL0 Copyright (c) Steve Scherf et al.
# Submitted via: EasyCDDAExtractor 16.0.6.1
#
DISCID=d60bbe10
DTITLE=Χαραλαμπίδης Βλαδίμηρος - Μιά ζωή ένας αγώνας-Βλ. Χαραλαμπίδης
DYEAR=1977
DGENRE=Ποικίλη
TTITLE0=Μέσ' στο σταθμό δάκρυ κυλά [Βλ. Χαραλαμπίδη]
TTITLE1=Μάννα αβού το πέρατον [Βλ. Χαραλαμπίδη]
TTITLE2=Χωρίς πατέραν [Βλ. Χαραλαμπίδη]
TTITLE3=Φύγον κι έλα με τεμέν [Βλ. Χαραλαμπίδη]
TTITLE4=Βγάλε τη μάσκα ξενητειά [Βλ. Χαραλαμπίδη]
TTITLE5=Απορώ κι αναρωτιέμαι [Βλ. Χαραλαμπίδη]
TTITLE6=Όλοι με κατηγορούνε [Βλ. Χαραλαμπίδη]
TTITLE7=Το ορφανόν [Βλ. Χαραλαμπίδη]
TTITLE8=Μάννα λέω και κλαίω [Βλ. Χαραλαμπίδη]
TTITLE9=Το φτωχικό σπιτάκι μας [Βλ. Χαραλαμπίδη]
TTITLE10=Κάνε το θαύμα Παναγιά [Βλ. Χαραλαμπίδη]
TTITLE11=Ο γυρισμός είναι χαρά [Βλ. Χαραλαμπίδη]
TTITLE12=Τα φράγκα έχουν την αξία [Βλ. Χαραλαμπίδη]
TTITLE13=Κλωστέστεν στα χωρία σας [Βλ. Χαραλαμπίδη]
TTITLE14=Με του χωρισμού τα πόνε [Βλ. Χαραλαμπίδη]
TTITLE15=Ξενητειά πανάθεμά σε [Βλ. Χαραλαμπίδη]
EXTD=
EXTT0=
EXTT1=
EXTT2=
EXTT3=
EXTT4=
EXTT5=
EXTT6=
EXTT7=
EXTT8=
EXTT9=
EXTT10=
EXTT11=
EXTT12=
EXTT13=
EXTT14=
EXTT15=
PLAYORDER=
